<?xml version="1.0" standalone="no"?>
<!DOCTYPE svg PUBLIC "-//W3C//DTD SVG 20010904//EN"
 "http://www.w3.org/TR/2001/REC-SVG-20010904/DTD/svg10.dtd">
<svg version="1.0" xmlns="http://www.w3.org/2000/svg"
 width="260.000000pt" height="260.000000pt" viewBox="0 0 260.000000 260.000000"
 preserveAspectRatio="xMidYMid meet">
<metadata>
Created by potrace 1.11, written by Peter Selinger 2001-2013
</metadata>
<g transform="translate(0.000000,260.000000) scale(0.100000,-0.100000)"
fill="#000000" stroke="none">
<path d="M1085 2584 c-629 -110 -1085 -650 -1085 -1284 0 -718 582 -1300 1300
-1300 718 0 1300 582 1300 1300 0 562 -359 1058 -893 1235 -56 18 -144 40
-196 49 -115 19 -316 19 -426 0z m-34 -766 c94 -27 163 -131 163 -243 1 -78
-39 -164 -95 -205 -39 -28 -39 -28 -14 -34 36 -9 102 -72 128 -120 16 -31 22
-59 22 -116 0 -90 -26 -146 -93 -197 -75 -57 -114 -63 -414 -63 l-268 0 0 495
0 495 266 0 c174 0 280 -4 305 -12z m940 0 c94 -27 163 -131 163 -243 1 -78
-39 -164 -95 -205 -39 -28 -39 -28 -14 -34 36 -9 102 -72 128 -120 16 -31 22
-59 22 -116 0 -90 -26 -146 -93 -197 -75 -57 -114 -63 -414 -63 l-268 0 0 495
0 495 266 0 c174 0 280 -4 305 -12z"/>
<path d="M640 1545 l0 -145 139 0 c170 0 194 4 236 44 45 43 55 105 27 169
-31 70 -52 77 -242 77 l-160 0 0 -145z"/>
<path d="M640 1125 l0 -145 175 0 c139 0 182 3 206 15 87 45 94 190 13 254
-25 20 -39 21 -210 21 l-184 0 0 -145z"/>
<path d="M1580 1545 l0 -145 139 0 c170 0 194 4 236 44 45 43 55 105 27 169
-31 70 -52 77 -242 77 l-160 0 0 -145z"/>
<path d="M1580 1125 l0 -145 175 0 c139 0 182 3 206 15 87 45 94 190 13 254
-25 20 -39 21 -210 21 l-184 0 0 -145z"/>
</g>
</svg>
